<svg width="114" height="63" viewBox="0 0 114 63" fill="none" xmlns="http://www.w3.org/2000/svg">
<g filter="url(#filter0_d)">
<path d="M8.74219 12.3184V20.166H12.666C13.2038 20.166 13.7096 20.0658 14.1836 19.8652C14.6576 19.6556 15.0723 19.373 15.4277 19.0176C15.7832 18.6621 16.0612 18.2474 16.2617 17.7734C16.4714 17.2904 16.5762 16.7799 16.5762 16.2422C16.5762 15.7044 16.4714 15.1986 16.2617 14.7246C16.0612 14.2415 15.7832 13.8223 15.4277 13.4668C15.0723 13.1113 14.6576 12.8333 14.1836 12.6328C13.7096 12.4232 13.2038 12.3184 12.666 12.3184H8.74219ZM8.74219 28H4.81836V8.39453H12.666C13.3861 8.39453 14.0788 8.49023 14.7441 8.68164C15.4095 8.86393 16.0293 9.12826 16.6035 9.47461C17.1868 9.81185 17.7155 10.222 18.1895 10.7051C18.6725 11.179 19.0827 11.7077 19.4199 12.291C19.7663 12.8743 20.0306 13.4987 20.2129 14.1641C20.4043 14.8294 20.5 15.5221 20.5 16.2422C20.5 17.3177 20.2949 18.334 19.8848 19.291C19.4746 20.2389 18.9141 21.0684 18.2031 21.7793C17.4922 22.4902 16.6582 23.0508 15.7012 23.4609C14.7533 23.8711 13.7415 24.0762 12.666 24.0762H8.74219V28ZM26.7344 28H22.8105V8.39453H26.7344V28ZM44.3848 28H29.209L37.5762 12.3184H29.209V8.39453H44.3848L36.0449 24.0762H44.3848V28ZM60.8184 28H45.6426L54.0098 12.3184H45.6426V8.39453H60.8184L52.4785 24.0762H60.8184V28ZM74.791 20.166V16.2422C74.791 15.7044 74.6862 15.1986 74.4766 14.7246C74.276 14.2415 73.998 13.8223 73.6426 13.4668C73.2871 13.1113 72.8678 12.8333 72.3848 12.6328C71.9108 12.4232 71.4049 12.3184 70.8672 12.3184C70.3294 12.3184 69.819 12.4232 69.3359 12.6328C68.862 12.8333 68.4473 13.1113 68.0918 13.4668C67.7363 13.8223 67.4538 14.2415 67.2441 14.7246C67.0436 15.1986 66.9434 15.7044 66.9434 16.2422V20.166H74.791ZM78.7148 28H74.791V24.0762H66.9434V28H63.0332V16.2422C63.0332 15.1576 63.2383 14.1413 63.6484 13.1934C64.0586 12.2363 64.6146 11.4023 65.3164 10.6914C66.0273 9.98047 66.8568 9.41992 67.8047 9.00977C68.7617 8.59961 69.7826 8.39453 70.8672 8.39453C71.9518 8.39453 72.9681 8.59961 73.916 9.00977C74.873 9.41992 75.707 9.98047 76.418 10.6914C77.1289 11.4023 77.6895 12.2363 78.0996 13.1934C78.5098 14.1413 78.7148 15.1576 78.7148 16.2422V28Z" fill="white"/>
<path d="M9.85416 30.423L14.2856 33.3258L10.57 38.9981L6.13855 36.0953" stroke="white" stroke-width="2"/>
<path d="M11.8186 35.9318L8.50977 33.7643" stroke="white" stroke-width="2"/>
<path d="M13.0552 36.3618C24.4919 43.9755 47.5251 54.8311 48.1638 37.3438" stroke="white" stroke-width="2"/>
</g>
<defs>
<filter id="filter0_d" x="0.818359" y="8.39453" width="81.8965" height="53.8958" filterUnits="userSpaceOnUse" color-interpolation-filters="sRGB">
<feFlood flood-opacity="0" result="BackgroundImageFix"/>
<feColorMatrix in="SourceAlpha" type="matrix" values="0 0 0 0 0 0 0 0 0 0 0 0 0 0 0 0 0 0 127 0" result="hardAlpha"/>
<feOffset dy="4"/>
<feGaussianBlur stdDeviation="2"/>
<feComposite in2="hardAlpha" operator="out"/>
<feColorMatrix type="matrix" values="0 0 0 0 0 0 0 0 0 0 0 0 0 0 0 0 0 0 0.25 0"/>
<feBlend mode="normal" in2="BackgroundImageFix" result="effect1_dropShadow"/>
<feBlend mode="normal" in="SourceGraphic" in2="effect1_dropShadow" result="shape"/>
</filter>
</defs>
</svg>
